<svg width="72" height="72" viewBox="0 0 72 72" fill="none" xmlns="http://www.w3.org/2000/svg">
<path d="M26.5568 55.6763C26.5568 55.6763 23.8028 57.2805 28.5121 57.8183C34.2181 58.4753 37.1363 58.383 43.4183 57.186C43.4183 57.186 45.0676 58.23 47.3783 59.1323C33.2821 65.169 15.4801 58.77 26.5546 55.6763H26.5568ZM24.8311 47.8013C24.8311 47.8013 21.7373 50.085 26.4488 50.5643C32.5576 51.1965 37.3591 51.2573 45.6908 49.653C45.6908 49.653 46.8406 50.814 48.6586 51.4553C31.6193 56.4345 12.6338 51.8423 24.8333 47.8013H24.8311ZM39.3503 34.4318C42.8176 38.4278 38.4346 42.0255 38.4346 42.0255C38.4346 42.0255 47.2478 37.4648 43.2046 31.7723C39.4223 26.451 36.5153 23.8163 52.2158 14.7083C52.2158 14.7083 27.5716 20.862 39.3481 34.434L39.3503 34.4318ZM57.9848 61.5128C57.9848 61.5128 60.0256 63.1868 55.7461 64.4895C47.6123 66.9488 21.8903 67.6868 14.7421 64.5818C12.1771 63.468 16.9921 61.911 18.5041 61.5938C20.0858 61.2428 20.9881 61.3148 20.9881 61.3148C18.1283 59.2988 2.52008 65.2635 13.0568 66.9735C41.8028 71.6378 65.4481 64.8765 57.9848 61.5128ZM27.8798 39.6338C27.8798 39.6338 14.7916 42.7388 23.2381 43.8638C26.8133 44.343 33.9278 44.2395 40.5608 43.677C45.9721 43.218 51.4126 42.246 51.4126 42.246C51.4126 42.246 49.5023 43.065 48.1186 44.0168C34.8278 47.5088 9.15533 45.8798 16.5488 42.3068C22.7948 39.294 27.8798 39.6338 27.8798 39.6338ZM51.3518 52.758C64.8518 45.7268 58.6058 38.988 54.2588 39.9038C53.1901 40.113 52.7108 40.3155 52.7108 40.3155C52.7108 40.3155 53.0978 39.6923 53.8606 39.4245C62.4848 36.3893 69.1178 48.3638 51.0818 53.1113C51.0818 53.1 51.2956 52.9245 51.3518 52.7603V52.758ZM43.2068 0C43.2068 0 50.6858 7.47675 36.1058 18.9833C24.4238 28.2173 33.4441 33.48 36.1058 39.492C29.2861 33.3383 24.2821 27.927 27.6346 22.887C32.5666 15.4688 46.2196 11.8823 43.2068 0ZM29.2028 71.7773C42.1651 72.5963 62.0731 71.3093 62.5568 65.1803C62.5568 65.1803 61.6411 67.5 51.8311 69.3495C40.7701 71.4353 27.1171 71.1878 19.0193 69.8535C19.0193 69.8535 20.6843 71.2238 29.2006 71.7773H29.2028Z" fill="black"/>
</svg>
