<svg width="67" height="77" viewBox="0 0 67 77" fill="none" xmlns="http://www.w3.org/2000/svg">
<g clip-path="url(#clip0_11863_147)">
<path d="M65.7364 35.6867L36.4912 6.2703C35.6816 5.4569 34.584 5 33.4396 5C32.2951 5 31.1975 5.4569 30.3879 6.2703L24.3071 12.3807L32.0121 20.1288C36.059 18.7542 39.8905 22.6508 38.5012 26.6979L45.928 34.1663C51.0472 32.3916 55.0777 38.8284 51.2327 42.6919C47.271 46.6757 40.7325 42.2603 42.8577 37.0763L35.9259 30.1147V48.4398C39.7096 50.3257 39.2549 54.7337 37.2838 56.7113C36.3208 57.6792 35.015 58.2229 33.6534 58.2229C32.2919 58.2229 30.986 57.6792 30.023 56.7113C27.3953 54.0644 28.3674 49.6565 31.7055 48.2894V29.7914C28.5948 28.5116 28.0265 25.1684 28.9178 23.0238L21.322 15.3764L1.26385 35.5498C0.45461 36.3638 0 37.4676 0 38.6186C0 39.7695 0.45461 40.8734 1.26385 41.6873L30.518 71.1037C31.3274 71.917 32.4247 72.3738 33.5689 72.3738C34.7131 72.3738 35.8105 71.917 36.6198 71.1037L65.7364 41.8241C66.5456 41.0102 67.0003 39.9064 67.0003 38.7554C67.0003 37.6045 66.5456 36.5006 65.7364 35.6867Z" fill="black"/>
</g>
<defs>
<clipPath id="clip0_11863_147">
<rect width="67" height="77" fill="white"/>
</clipPath>
</defs>
</svg>
