<svg width="63" height="72" viewBox="0 0 63 72" fill="none" xmlns="http://www.w3.org/2000/svg">
<path d="M0 5V68H63V5H0ZM34.2844 54.1344C34.2844 60.2656 30.6844 63.0641 25.4391 63.0641C20.7 63.0641 17.9578 60.6172 16.5516 57.65L21.375 54.7391C22.3031 56.3844 23.1469 57.7766 25.1859 57.7766C27.1266 57.7766 28.3641 57.0172 28.3641 54.05V33.9266H34.2844V54.1344ZM48.2906 63.0641C42.7922 63.0641 39.2344 60.4484 37.5047 57.0172L42.3281 54.2328C43.5938 56.3 45.2531 57.8328 48.1641 57.8328C50.6109 57.8328 52.1859 56.6094 52.1859 54.9078C52.1859 52.8828 50.5828 52.1656 47.8687 50.9703L46.3922 50.3375C42.1172 48.5234 39.2906 46.2313 39.2906 41.4078C39.2906 36.9641 42.6797 33.5891 47.9531 33.5891C51.7219 33.5891 54.4219 34.8969 56.3625 38.3281L51.75 41.2812C50.7375 39.4672 49.6406 38.75 47.9391 38.75C46.2094 38.75 45.1125 39.8469 45.1125 41.2812C45.1125 43.0531 46.2094 43.7703 48.7547 44.8813L50.2313 45.5141C55.2656 47.6656 58.0922 49.8734 58.0922 54.8234C58.0922 60.1391 53.9016 63.0641 48.2906 63.0641Z" fill="black"/>
</svg>
