<svg width="72" height="72" viewBox="0 0 72 72" fill="none" xmlns="http://www.w3.org/2000/svg">
<path d="M72 35.067C72 30.297 66.027 25.776 56.868 22.974C58.983 13.641 58.044 6.213 53.904 3.834C52.9008 3.27216 51.7655 2.98936 50.616 3.015V6.285C51.291 6.285 51.834 6.42 52.29 6.669C54.285 7.815 55.152 12.171 54.477 17.778C54.315 19.158 54.051 20.61 53.727 22.092C50.6599 21.3529 47.547 20.8187 44.409 20.493C42.5396 17.9139 40.5 15.4624 38.304 13.155C43.089 8.709 47.58 6.273 50.634 6.273V3C46.596 3 41.313 5.877 35.97 10.866C30.63 5.91 25.344 3.06 21.309 3.06V6.33C24.348 6.33 28.854 8.754 33.639 13.17C31.584 15.33 29.529 17.778 27.576 20.493C24.4315 20.8151 21.3131 21.3544 18.243 22.107C17.9185 20.7024 17.6632 19.2827 17.478 17.853C16.788 12.243 17.64 7.887 19.623 6.729C20.061 6.465 20.634 6.345 21.309 6.345V3.075C20.079 3.075 18.96 3.339 17.994 3.894C13.869 6.273 12.945 13.683 15.072 22.989C5.943 25.809 0 30.312 0 35.067C0 39.837 5.973 44.358 15.132 47.157C13.017 56.493 13.956 63.921 18.096 66.297C19.05 66.855 20.166 67.119 21.396 67.119C25.434 67.119 30.717 64.242 36.06 59.253C41.4 64.212 46.683 67.059 50.721 67.059C51.8793 67.0835 53.0233 66.7998 54.036 66.237C58.161 63.861 59.085 56.451 56.958 47.145C66.057 44.343 72 39.822 72 35.067ZM52.89 25.278C52.32 27.2396 51.6592 29.1736 50.91 31.074C49.6835 28.6883 48.3368 26.3663 46.875 24.117C48.96 24.426 50.97 24.807 52.893 25.278H52.89ZM46.17 40.908C45.0712 42.8264 43.8911 44.6971 42.633 46.515C38.2298 46.9031 33.8011 46.9081 29.397 46.53C26.8708 42.9215 24.6616 39.1013 22.794 35.112C24.6587 31.1133 26.8586 27.2796 29.37 23.652C33.7722 23.2631 38.1998 23.2571 42.603 23.634C43.821 25.38 45.012 27.246 46.155 29.214C47.271 31.134 48.285 33.084 49.209 35.052C48.2747 37.0439 47.2609 38.9974 46.17 40.908ZM50.91 39C51.702 40.965 52.38 42.933 52.935 44.841C51.015 45.312 48.987 45.708 46.89 46.014C48.3457 43.7443 49.6874 41.4034 50.91 39ZM36.03 54.66C34.665 53.25 33.3 51.681 31.95 49.962C33.27 50.022 34.62 50.067 35.985 50.067C37.365 50.067 38.73 50.037 40.065 49.962C38.745 51.681 37.38 53.25 36.03 54.66ZM25.11 46.014C23.0872 45.7209 21.0791 45.3345 19.092 44.856C19.635 42.963 20.31 41.01 21.072 39.06C21.675 40.23 22.308 41.406 22.998 42.582C23.688 43.755 24.39 44.901 25.11 46.014ZM35.955 15.474C37.32 16.884 38.685 18.453 40.035 20.172C38.715 20.112 37.365 20.067 36 20.067C34.62 20.067 33.255 20.097 31.92 20.172C33.24 18.453 34.605 16.884 35.955 15.474ZM25.095 24.12C23.6396 26.3848 22.2979 28.7207 21.075 31.119C20.3046 29.2064 19.6288 27.257 19.05 25.278C20.97 24.822 22.998 24.426 25.095 24.12ZM11.814 42.492C6.618 40.278 3.258 37.371 3.258 35.067C3.258 32.763 6.618 29.841 11.814 27.642C13.074 27.099 14.454 26.613 15.879 26.16C16.716 29.034 17.817 32.028 19.179 35.097C17.8931 37.9836 16.8056 40.9544 15.924 43.989C14.5304 43.5575 13.1587 43.0579 11.814 42.492ZM19.71 63.462C17.715 62.322 16.848 57.96 17.523 52.356C17.685 50.976 17.949 49.521 18.273 48.039C21.147 48.744 24.288 49.287 27.591 49.641C29.4605 52.2201 31.5001 54.6715 33.696 56.979C28.911 61.425 24.42 63.861 21.366 63.861C20.7898 63.8673 20.221 63.7313 19.71 63.465V63.462ZM54.522 52.281C55.212 57.888 54.36 62.247 52.377 63.405C51.939 63.669 51.366 63.786 50.691 63.786C47.652 63.786 43.146 61.365 38.361 56.946C40.5478 54.6482 42.5736 52.2024 44.424 49.626C47.5685 49.3039 50.6869 48.7646 53.757 48.012C54.096 49.494 54.357 50.916 54.522 52.281ZM60.171 42.492C58.911 43.035 57.531 43.521 56.106 43.974C55.2089 40.924 54.1064 37.9381 52.806 35.037C54.156 31.986 55.239 29.007 56.061 26.145C57.4591 26.578 58.8357 27.0775 60.186 27.642C65.382 29.856 68.742 32.763 68.742 35.067C68.727 37.371 65.367 40.293 60.171 42.492Z" fill="black"/>
<path d="M35.9849 41.775C37.7639 41.775 39.4701 41.0683 40.7281 39.8103C41.9861 38.5523 42.6929 36.8461 42.6929 35.067C42.6929 33.2879 41.9861 31.5817 40.7281 30.3237C39.4701 29.0657 37.7639 28.359 35.9849 28.359C34.2058 28.359 32.4996 29.0657 31.2416 30.3237C29.9836 31.5817 29.2769 33.2879 29.2769 35.067C29.2769 36.8461 29.9836 38.5523 31.2416 39.8103C32.4996 41.0683 34.2058 41.775 35.9849 41.775Z" fill="black"/>
</svg>
